#!OML:ASF I:\golf\golf\golf 2\Subject 1\2002-09-07\Subject1.ASF
:FULLY-SPECIFIED
:DEGREES
397
root -6.97307 18.1672 -3.49262 -169.004 13.8765 -174.38
lowerback -5.42642 9.96032 10.3287
upperback -7.25595 14.5945 4.18999
thorax -3.43888 7.51124 -0.719784
lowerneck -16.4067 -13.2169 0.224572
upperneck 17.8125 -19.7056 3.31519
head 8.55035 -9.20482 -1.37244
rclavicle -6.55989e-014 -3.81667e-014
rhumerus 66.6602 33.8361 -69.2503
rradius 56.799
rwrist -18.6763
rhand -40.8464 25.8133
rfingers 7.12502
rthumb -13.7836 -3.7101
lclavicle -6.55989e-014 -3.81667e-014
lhumerus 48.36 -7.11964 60.048
lradius 54.4747
lwrist 19.5478
lhand -15.1316 16.4924
lfingers 7.12502
lthumb -168.962 -493.818
rfemur 9.09348 -2.77668 15.3061
rtibia 25.3244
rfoot 29.6128 -23.7625
rtoes 15.529
lfemur -22.8492 -18.8895 -11.6783
ltibia 19.3664
lfoot 30.1392 -46.8485
ltoes 37.833
398
root -6.96944 18.1716 -3.4876 -168.986 14.0497 -174.412
lowerback -5.46479 10.0322 10.2178
upperback -7.23108 14.6507 4.06863
thorax -3.37452 7.5338 -0.768184
lowerneck -16.242 -13.2507 0.336633
upperneck 17.641 -19.7848 3.40683
head 8.46429 -9.24109 -1.34775
rclavicle 4.81059e-014 1.22451e-013
rhumerus 65.7557 33.7421 -69.7343
rradius 56.6214
rwrist -19.2427
rhand -40.7252 25.3408
rfingers 7.12502
rthumb -13.6668 -4.19051
lclavicle 4.81059e-014 1.22451e-013
lhumerus 48.043 -7.62786 60.3801
lradius 54.2696
lwrist 19.7742
lhand -14.3574 16.4993
lfingers 7.12502
lthumb -168.216 -493.852
rfemur 8.9731 -2.63344 15.2329
rtibia 25.4243
rfoot 29.8384 -23.3532
rtoes 15.15
lfemur -22.7267 -18.8433 -11.6982
ltibia 19.2324
lfoot 28.8386 -47.3309
ltoes 36.3278
399
root -6.96749 18.1733 -3.48184 -169.025 14.2211 -174.477
lowerback -5.44816 9.96737 10.0743
upperback -6.99567 14.5036 4.14333
thorax -3.18583 7.46457 -0.609273
lowerneck -16.6732 -13.1548 0.155887
upperneck 17.6994 -19.592 3.43132
head 8.57618 -9.13049 -1.32817
rclavicle -2.5842e-014 -1.11319e-014
rhumerus 65.4838 34.0486 -69.7714
rradius 56.3135
rwrist -19.8637
rhand -40.7895 25.9813
rfingers 7.12502
rthumb -13.7287 -3.54584
lclavicle -2.5842e-014 -1.11319e-014
lhumerus 47.6374 -7.5469 60.8285
lradius 54.0381
lwrist 19.9561
lhand -13.756 16.4011
lfingers 7.12502
lthumb -167.636 -493.984
rfemur 8.93002 -2.57498 15.0869
rtibia 25.4858
rfoot 30.1114 -22.8294
rtoes 14.5707
lfemur -22.6017 -18.8495 -11.7676
ltibia 19.1192
lfoot 28.1472 -47.4537
ltoes 35.6928
400
root -6.96453 18.1742 -3.47738 -169.015 14.3231 -174.428
lowerback -5.38265 9.878 10.0131
upperback -6.86408 14.365 4.23278
thorax -3.1239 7.3976 -0.499599
lowerneck -16.9818 -13.0276 0.00191341
upperneck 17.7581 -19.3645 3.44466
head 8.66261 -9.01019 -1.30091
rclavicle -1.17283e-014 -7.95139e-015
rhumerus 65.0031 34.3484 -69.9442
rradius 56.0817
rwrist -20.1694
rhand -40.8439 26.568
rfingers 7.12502
rthumb -13.7812 -2.95552
lclavicle -1.17283e-014 -7.95139e-015
lhumerus 47.2099 -7.58753 61.3097
lradius 53.7326
lwrist 20.0497
lhand -13.2498 16.4773
lfingers 7.12502
lthumb -167.148 -493.938
rfemur 8.90755 -2.49616 15.1044
rtibia 25.5085
rfoot 29.9408 -22.9716
rtoes 15.216
lfemur -22.5016 -18.8113 -11.7121
ltibia 18.9883
lfoot 27.5638 -47.6483
ltoes 35.1058
401
root -6.95873 18.1782 -3.47435 -168.966 14.3706 -174.325
lowerback -5.32411 9.79823 9.9211
upperback -6.86992 14.2755 4.29232
thorax -3.20311 7.35577 -0.418001
lowerneck -16.9155 -12.9195 -0.000875143
upperneck 17.6825 -19.1902 3.42369
head 8.62053 -8.93352 -1.2754
rclavicle -7.43455e-014 5.88403e-014
rhumerus 64.1634 34.5139 -70.1115
rradius 56.2561
rwrist -20.3752
rhand -40.7928 26.2553
rfingers 7.12502
rthumb -13.7319 -3.27156
lclavicle -7.43455e-014 5.88403e-014
lhumerus 46.7173 -7.87381 61.685
lradius 53.3906
lwrist 20.1247
lhand -12.8443 16.4446
lfingers 7.12502
lthumb -166.757 -493.996
rfemur 8.87696 -2.37586 15.2393
rtibia 25.5047
rfoot 29.7781 -23.174
rtoes 15.6717
lfemur -22.5234 -18.7968 -11.5643
ltibia 18.8857
lfoot 27.8988 -38.7056
ltoes 52.6771
402
root -6.95105 18.1816 -3.47176 -168.96 14.3791 -174.28
lowerback -5.28251 9.75541 9.84792
upperback -6.80488 14.2035 4.30524
thorax -3.17732 7.31924 -0.375547
lowerneck -17.0892 -12.8586 -0.0581244
upperneck 17.7392 -19.0941 3.4463
head 8.67657 -8.87804 -1.2642
rclavicle 1.92821e-014 8.90555e-014
rhumerus 63.4294 34.5542 -70.2272
rradius 56.442
rwrist -20.4883
rhand -40.6693 24.8922
rfingers 7.12502
rthumb -13.6129 -4.64273
lclavicle 1.92821e-014 8.90555e-014
lhumerus 46.2813 -8.19286 61.9042
lradius 53.194
lwrist 20.3497
lhand -12.3995 16.2711
lfingers 7.12502
lthumb -166.328 -494.198
rfemur 8.8966 -2.36725 15.2946
rtibia 25.4987
rfoot 29.6033 -23.3072
rtoes 15.895
lfemur -22.5495 -18.8472 -11.4626
ltibia 18.8393
lfoot 28.2219 -38.3668
ltoes 52.9462
403
root -6.94497 18.1804 -3.46858 -168.983 14.4095 -174.341
lowerback -5.22623 9.71864 9.6733
upperback -6.75341 14.1457 4.3113
thorax -3.19222 7.29156 -0.295009
lowerneck -17.1486 -12.8631 -0.247194
upperneck 17.6974 -19.0594 3.54003
head 8.70052 -8.85837 -1.20907
rclavicle 4.81059e-014 -1.59028e-014
rhumerus 62.6285 34.6482 -70.5854
rradius 56.3518
rwrist -20.4322
rhand -40.6114 23.7679
rfingers 7.12502
rthumb -13.5571 -5.77074
lclavicle 4.81059e-014 -1.59028e-014
lhumerus 45.7135 -8.53855 62.1449
lradius 53.1502
lwrist 20.6691
lhand -11.9262 16.273
lfingers 7.12502
lthumb -165.872 -494.227
rfemur 8.90263 -2.49841 15.1537
rtibia 25.5388
rfoot 29.5212 -23.2094
rtoes 15.8387
lfemur -22.5159 -18.8535 -11.5046
ltibia 18.8051
lfoot 28.1375 -38.3711
ltoes 52.9477
404
root -6.94159 18.177 -3.4638 -168.943 14.5264 -174.398
lowerback -5.19944 9.69512 9.51137
upperback -6.73815 14.1084 4.2978
thorax -3.22134 7.27381 -0.236743
lowerneck -17.0827 -12.8377 -0.369812
upperneck 17.5338 -19.0043 3.69718
head 8.66152 -8.82935 -1.12568
rclavicle -1.33385e-013 -6.04305e-014
rhumerus 61.7559 34.7979 -71.0919
rradius 56.1962
rwrist -20.237
rhand -40.5242 23.7502
rfingers 7.12502
rthumb -13.4731 -5.794
lclavicle -1.33385e-013 -6.04305e-014
lhumerus 45.1471 -8.81464 62.5741
lradius 53.0427
lwrist 20.8415
lhand -11.429 16.3066
lfingers 7.12502
lthumb -165.393 -494.228
rfemur 8.75939 -2.59421 14.9748
rtibia 25.6695
rfoot 29.8391 -22.4943
rtoes 14.6646
lfemur -22.5311 -18.8032 -11.5408
ltibia 18.744
lfoot 28.0595 -38.3334
ltoes 52.9621
405
root -6.93955 18.1766 -3.4581 -168.847 14.705 -174.362
lowerback -5.18585 9.69126 9.43623
upperback -6.70716 14.0937 4.30051
thorax -3.21161 7.26687 -0.197574
lowerneck -17.2573 -12.7296 -0.483167
upperneck 17.6832 -18.8599 3.77346
head 8.7598 -8.74718 -1.08895
rclavicle 1.28415e-013 1.59028e-014
rhumerus 60.9915 34.9577 -71.4957
rradius 56.1306
rwrist -20.0746
rhand -40.2896 23.5837
rfingers 7.12502
rthumb -13.247 -5.97536
lclavicle 1.28415e-013 1.59028e-014
lhumerus 44.6692 -8.94901 63.2004
lradius 52.8809
lwrist 20.9307
lhand -10.6565 16.3155
lfingers 7.12502
lthumb -164.649 -494.274
rfemur 8.52636 -2.56309 14.9075
rtibia 25.8553
rfoot 30.1329 -21.694
rtoes 13.4407
lfemur -22.5711 -18.6969 -11.4703
ltibia 18.6635
lfoot 28.2624 -38.4263
ltoes 52.6343
406
root -6.93719 18.1733 -3.45125 -168.804 14.8328 -174.407
lowerback -5.13175 9.66194 9.27309
upperback -6.67063 14.0483 4.30209
thorax -3.23717 7.24488 -0.127039
lowerneck -17.4811 -12.626 -0.50059
upperneck 17.8554 -18.7125 3.71976
head 8.85077 -8.66835 -1.10743
rclavicle -7.41467e-014 -2.54444e-014
rhumerus 60.2845 35.114 -71.8635
rradius 56.0934
rwrist -20.0935
rhand -39.882 22.7872
rfingers 7.12502
rthumb -12.8541 -6.79702
lclavicle -7.41467e-014 -2.54444e-014
lhumerus 44.1377 -9.06778 63.7286
lradius 52.8396
lwrist 21.2597
lhand -9.84138 16.4213
lfingers 7.12502
lthumb -163.864 -494.23
rfemur 8.36277 -2.46704 14.8133
rtibia 26.012
rfoot 30.2829 -21.1094
rtoes 12.5707
lfemur -22.6242 -18.5638 -11.5191
ltibia 18.6138
lfoot 30.2926 -38.0125
ltoes 52.3233
407
root -6.93264 18.1687 -3.44536 -168.839 14.8476 -174.508
lowerback -5.05804 9.59374 9.0483
upperback -6.63601 13.9486 4.28159
thorax -3.28464 7.19455 -0.0560976
lowerneck -17.4815 -12.5308 -0.40219
upperneck 17.7029 -18.5612 3.67638
head 8.78143 -8.5984 -1.1053
rclavicle 3.00165e-014 1.04958e-013
rhumerus 59.4508 35.2323 -72.498
rradius 55.8896
rwrist -19.8833
rhand -39.5704 22.2965
rfingers 7.12502
rthumb -12.5536 -7.3064
lclavicle 3.00165e-014 1.04958e-013
lhumerus 43.5605 -9.27063 64.072
lradius 52.8237
lwrist 21.7605
lhand -9.35256 16.3363
lfingers 7.12502
lthumb -163.393 -494.354
rfemur 8.32504 -2.38797 14.7158
rtibia 26.1111
rfoot 30.3792 -20.6812
rtoes 11.6906
lfemur -22.6525 -18.5681 -11.6155
ltibia 18.6165
lfoot 33.3297 -38.2953
ltoes 50.6313
408
root -6.92721 18.1723 -3.44298 -168.892 14.8204 -174.494
lowerback -4.98007 9.47971 8.93653
upperback -6.55628 13.7877 4.3357
thorax -3.2853 7.11511 0.0349796
lowerneck -17.5421 -12.4036 -0.331012
upperneck 17.565 -18.3499 3.60877
head 8.72664 -8.5 -1.10398
rclavicle -4.83047e-014 -6.36111e-015
rhumerus 58.6269 35.4637 -73.098
rradius 55.7165
rwrist -19.5234
rhand -39.3836 22.3888
rfingers 7.12502
rthumb -12.3735 -7.22502
lclavicle -4.83047e-014 -6.36111e-015
lhumerus 42.9683 -9.33213 64.5096
lradius 52.6486
lwrist 21.9874
lhand -9.00537 15.8581
lfingers 7.12502
lthumb -163.059 -494.861
rfemur 8.36222 -2.33171 14.7464
rtibia 26.158
rfoot 30.2785 -20.5698
rtoes 11.4387
lfemur -22.6002 -18.694 -11.5434
ltibia 18.6377
lfoot 32.9665 -42.0434
ltoes 44.6672
409
root -6.92223 18.1768 -3.44148 -168.897 14.8188 -174.453
lowerback -4.97148 9.33759 8.8431
upperback -6.43937 13.5866 4.46647
thorax -3.22586 7.02302 0.208725
lowerneck -17.7155 -12.2671 -0.485519
upperneck 17.5283 -18.0974 3.62439
head 8.75531 -8.37721 -1.05478
rclavicle -2.22639e-014 3.49861e-014
rhumerus 57.9846 35.8433 -73.3676
rradius 55.7853
rwrist -19.5762
rhand -39.1941 22.4477
rfingers 7.12502
rthumb -12.1908 -7.17705
lclavicle -2.22639e-014 3.49861e-014
lhumerus 42.2908 -9.24773 64.9941
lradius 52.5837
lwrist 21.9998
lhand -8.503 15.7949
lfingers 7.12502
lthumb -162.575 -494.966
rfemur 8.3753 -2.29167 14.7851
rtibia 26.1546
rfoot 29.9661 -20.848
rtoes 12.217
lfemur -22.5492 -18.7143 -11.4586
ltibia 18.6963
lfoot 29.7068 -45.6196
ltoes 38.3184
